<svg xmlns="http://www.w3.org/2000/svg" width="70" height="64" fill="none" viewBox="0 0 70 64">
  <path fill="#1D63ED" d="M60.7658 25.9628c-.488-4.5858-5.4327-8.4508-5.4327-8.4508s-2.8331 3.865-2.5356 8.2537c.1828 1.7702.7253 3.5384 1.6314 4.9144-.7253.3942-1.6314.7865-2.3547 1.1788-1.6295.5894-3.7781 1.1131-5.4075 1.1131H.289722L0 34.9046c0 3.865.073889 7.1097 2.81361 12.1535C6.29417 53.4663 14.595 58 23.1039 58c16.2964 0 29.6936-7.6663 36.0325-24.1757C68.0556 34.9046 70 27.5359 70 27.5359s-3.8889-2.2939-9.2342-1.5731"/>
  <path fill="#1D63ED" d="M14.0504 47.3866c-1.9911 0-3.8014-1.7682-3.8014-3.9307 0-2.1605 1.6275-3.9307 3.8014-3.9307s3.8033 1.7702 3.8033 3.9307c0 2.1625-1.8122 3.9307-3.8033 3.9307m16.2948-16.5538h7.0622v-7.017h-7.0622v7.017Zm0-8.8181h7.0622v-7.0169h-7.0622v7.0169Zm0-8.9978h7.0622V5.99806h-7.0622v7.01884Zm8.6914 17.8159h7.0622v-7.017h-7.0622v7.017Zm-26.2539 0h7.0622v-7.017h-7.0622v7.017Zm8.8726 0h7.0622v-7.017h-7.0622v7.017Zm-17.56399 0h7.06219v-7.017H4.09131v7.017Zm17.56399-8.8181h7.0622v-7.0169h-7.0622v7.0169Zm-8.8726 0h7.0622v-7.0169h-7.0622v7.0169Z"/>
</svg>
