<svg xmlns="http://www.w3.org/2000/svg" width="60" height="64" fill="none" viewBox="0 0 60 64">
  <path fill="#DE4C36" d="M58.8712 29.3271 32.6729 3.13066c-1.5076-1.50755-3.9545-1.50755-5.464 0l-5.4395 5.43955 6.9002 6.90209c1.6032-.5419 3.4426-.1781 4.7214 1.0988 1.2844 1.2863 1.6444 3.1426 1.0894 4.7495l6.6508 6.6508c1.6088-.5531 3.467-.195 4.7496 1.0932 1.7963 1.7944 1.7963 4.7045 0 6.5027-1.7963 1.7963-4.7064 1.7963-6.5027 0-1.3501-1.3538-1.6838-3.3376-1.0013-5.0027l-6.2008-6.2008v16.3205c.4481.2213.8587.5175 1.215.8701 1.7944 1.7944 1.7944 4.7064 0 6.5027-1.7982 1.7963-4.7083 1.7963-6.5027 0-1.7963-1.7963-1.7963-4.7083 0-6.5027.4313-.4294.9413-.7707 1.5057-1.0032V24.0769c-.5644-.2306-1.0763-.57-1.5057-1.0031-1.3594-1.3594-1.6876-3.3564-.99-5.027l-6.8027-6.8028L1.1325 29.2052c-1.511301 1.5113-1.511301 3.9583 0 5.4658l26.1983 26.1983c1.5076 1.5076 3.9545 1.5076 5.4639 0l26.0746-26.0745c1.5113-1.5113 1.5113-3.9601 0-5.4677"/>
</svg>
