<svg xmlns="http://www.w3.org/2000/svg" width="86" height="64" fill="none" viewBox="0 0 86 64">
  <path fill="#00ACD7" fill-rule="evenodd" d="m49.858 25.9547-.0002.0001c-.9811.2594-1.9763.5226-3.128.8186l-.0692.0185c-.5628.1506-.6215.1663-1.1451-.4355-.6281-.7089-1.0887-1.1676-1.9681-1.5847-2.6379-1.2927-5.1921-.9174-7.5789.6256-2.8473 1.8349-4.3128 4.5455-4.271 7.9234.0419 3.3361 2.3449 6.0885 5.6528 6.5472 2.8473.3753 5.2341-.6255 7.1183-2.7524.2795-.3402.536-.7033.8207-1.1065.0992-.1404.2017-.2856.3099-.4364h-8.0814c-.8793 0-1.0887-.5422-.7956-1.2511.5444-1.2928 1.5493-3.4613 2.1355-4.5455.1256-.2502.4188-.6672 1.0468-.6672h13.4742c.6052-1.9095 1.5871-3.7138 2.8969-5.4211 3.0567-4.0034 6.7414-6.0885 11.7242-6.9642 4.271-.7507 8.2908-.3337 11.9337 2.1268 3.3079 2.2519 5.3596 5.2961 5.904 9.2995.7118 5.6298-.9212 10.217-4.8153 14.137-2.7636 2.7941-6.1553 4.5455-10.0494 5.3379-.7429.137-1.4857.202-2.2166.2659-.3816.0334-.7598.0665-1.1332.1094-3.8104-.0834-7.2858-1.1677-10.2169-3.6698-2.0611-1.7744-3.481-3.9552-4.1868-6.4939-.4895.9843-1.0748 1.9271-1.7579 2.8239-3.0149 3.9617-6.9509 6.4221-11.9337 7.0894-4.1035.5421-7.9139-.2502-11.2637-2.7524-3.0986-2.3353-4.8572-5.4212-5.3178-9.2578-.5444-4.5455.7956-8.6323 3.5591-12.2187 2.973-3.8783 6.909-6.3387 11.7243-7.2145 3.9361-.7089 7.7046-.2502 11.0963 2.0434 2.2192 1.4596 3.8104 3.4613 4.8572 5.88.2512.3753.0837.5838-.4188.709-1.4675.3712-2.6759.6907-3.9063 1.0161Zm-43.36802-.2655c-.16749 0-.20936-.0834-.12562-.2085l.87932-1.1259c.08375-.1252.29311-.2086.4606-.2086H22.6527c.1675 0 .2094.1251.1257.2503l-.7119 1.0842c-.0837.1251-.2931.2502-.4187.2502l-15.15782-.0417ZM.167491 29.5259c-.16749 0-.209364-.0834-.125618-.2085l.879323-1.126c.083744-.1251.293104-.2085.460594-.2085H20.4757c.1675 0 .2512.1251.2093.2502l-.335 1.0009c-.0418.1668-.2093.2502-.3768.2502l-19.805709.0417ZM10.1753 33.112c-.0838.1251-.0419.2502.1256.2502l9.1282.0417c.1256 0 .2931-.1251.2931-.2919l.0838-1.0009c0-.1668-.0838-.2919-.2513-.2919h-8.3745c-.1675 0-.335.1251-.4187.2502l-.5862 1.0426Zm67.3842-2.4056c.0082.1401.0169.2877.0291.446-.2093 3.5863-2.0099 6.2553-5.3178 7.9651-2.2192 1.1259-4.5222 1.251-6.8252.2502-3.0148-1.3345-4.6059-4.629-3.8522-7.8817.9212-3.92 3.4335-6.3804 7.3276-7.2562 3.9779-.9174 7.7883 1.4179 8.542 5.5464.0593.2953.0766.5905.0965.9302Z" clip-rule="evenodd"/>
</svg>
