<svg xmlns="http://www.w3.org/2000/svg" width="52" height="64" fill="none" viewBox="0 0 52 64">
  <path fill="#F7DF1E" d="M49.5625 6H2.4375C1.09131 6 0 7.09131 0 8.4375v47.125C0 56.9087 1.09131 58 2.4375 58h47.125C50.9087 58 52 56.9087 52 55.5625V8.4375C52 7.09131 50.9087 6 49.5625 6Z"/>
  <path fill="#000" d="M34.931 46.6252c1.0474 1.7102 2.4102 2.9673 4.8203 2.9673 2.0247 0 3.3181-1.0119 3.3181-2.4101 0-1.6756-1.3289-2.269-3.5574-3.2438l-1.2216-.5242c-3.5261-1.5022-5.8686-3.3841-5.8686-7.3625 0-3.6648 2.7923-6.4546 7.1562-6.4546 3.1068 0 5.3403 1.0813 6.9498 3.9124l-3.8051 2.4431c-.8377-1.5022-1.7415-2.094-3.1447-2.094-1.4312 0-2.3384.908-2.3384 2.094 0 1.466.908 2.0594 3.0045 2.9673l1.2216.5233c4.1517 1.7804 6.4958 3.5955 6.4958 7.6762 0 4.3994-3.4559 6.8096-8.0971 6.8096-4.538 0-7.4698-2.1626-8.9044-4.997l3.971-2.307Zm-17.2615.4235c.7676 1.3619 1.4659 2.5133 3.1447 2.5133 1.6054 0 2.6182-.6281 2.6182-3.0705V29.8763h4.8864v16.6812c0 5.0597-2.9665 7.3626-7.2966 7.3626-3.9123 0-6.1781-2.0247-7.3303-4.4634l3.9776-2.408Z"/>
</svg>
