<svg xmlns="http://www.w3.org/2000/svg" width="57" height="64" fill="none" viewBox="0 0 57 64">
  <path fill="#fff" d="m28.4246 4.00006-.0578-.00003c-.4576-.00033-1.1765-.00086-1.8574.16937l-.1532.03829L7.4166 13.336c-1.33912.6282-2.33272 1.8072-2.68881 3.3206l-.00123.0052L.092643 36.9892l-.006626.0376c-.258446 1.4645.089963 2.9306.941883 4.1233l.02671.0374L14.1442 57.379l.0576.0575c.9922.9922 2.3904 1.6586 3.8357 1.7436l.0452.0027h20.6851c1.6496.1497 3.17-.6016 4.1325-1.8929L55.918 41.1875l.0267-.0374c.8522-1.1931 1.1818-2.6294 1.0164-4.0355l-.01-.0853-4.7184-20.3013-.0171-.0548c-.4481-1.4338-1.4973-2.5301-2.7189-3.1816l-.0296-.0158-18.825-9.01135c-.798-.3952-1.6235-.46439-2.2175-.46439Z"/>
  <path fill="#326CE5" d="M50.7444 17.1329c-.3083-.9865-1.0482-1.788-1.973-2.2813L29.9661 5.84976c-.4933-.24662-1.0482-.30828-1.5414-.30828-.4933 0-1.0482 0-1.5414.12331L8.07797 14.7283c-.92485.4316-1.60307 1.2332-1.8497 2.2813L1.60402 37.2947c-.18497 1.0481.06166 2.0963.67822 2.9595L15.2918 56.3466c.7399.7399 1.788 1.2331 2.8362 1.2948h20.7167c1.1098.1233 2.1579-.37 2.8362-1.2948l13.0095-16.0924c.6166-.8632.8632-1.9114.7399-2.9595l-4.6859-20.1618Z"/>
  <path fill="#fff" d="M47.8466 36.4931c-.0617 0-.1233 0-.1233-.0616 0-.0617-.1234-.0617-.2467-.0617-.2466-.0617-.4932-.0616-.7399-.0616-.1233 0-.2466-.0001-.3699-.0617h-.0617c-.6782-.0617-1.4181-.185-2.0963-.3699-.1849-.0617-.3699-.2467-.4316-.4316l-.4932-.1234c.2466-1.788.1233-3.6377-.2467-5.4257-.4315-1.7881-1.1714-3.5145-2.1579-5.0559l.3699-.3699v-.0617c0-.185.0617-.4316.185-.5549.5549-.4933 1.1098-.8632 1.7264-1.2331.1233-.0617.2466-.1233.3699-.185.2466-.1233.4316-.2466.6782-.3699.0617-.0617.1233-.0617.185-.1234.0617-.0616 0-.0616 0-.1233.5549-.4316.6782-1.1714.2466-1.7264-.1849-.2466-.5549-.4316-.8632-.4316s-.6165.1234-.8632.3083l-.0616.0617c-.0617.0616-.1233.1233-.185.1233-.185.185-.3699.3699-.4932.5549-.0617.1233-.185.185-.2467.2466-.4316.4933-.9865.9865-1.5414 1.3565-.1233.0616-.2466.1233-.3699.1233-.0617 0-.185 0-.2467-.0617h-.0616l-.4933.3083c-.4932-.4932-1.0481-.9865-1.5414-1.4797-2.2813-1.7881-5.1175-2.8979-8.0154-3.2062l-.0616-.4932v.0616c-.185-.1233-.2466-.3083-.3083-.4932 0-.6783 0-1.3565.1233-2.0964v-.0616c0-.1233.0617-.2466.0617-.37.0616-.2466.0616-.4932.1233-.7398v-.37c.0616-.6165-.4316-1.2331-1.0482-1.2948-.3699-.0616-.7399.1233-1.0481.4316-.2467.2467-.37.5549-.37.8632v.3083c0 .2466.0617.4933.1233.7399.0617.1233.0617.2466.0617.3699v.0617c.1233.6782.1233 1.3564.1233 2.0963-.0616.185-.1233.37-.3083.4933v.1233l-.0616.4932c-.6783.0617-1.3565.185-2.0964.3083-2.8978.6166-5.5491 2.158-7.5837 4.316l-.37-.2466h-.0616c-.0617 0-.1233.0616-.2467.0616-.1233 0-.2466-.0616-.3699-.1233-.5549-.4316-1.1098-.9249-1.5414-1.4181-.0617-.1233-.185-.185-.2466-.2466-.185-.185-.3083-.37-.4933-.5549-.0616-.0617-.1233-.0617-.185-.1234l-.0616-.0616c-.2466-.185-.5549-.3083-.8632-.3083-.3699 0-.6782.1233-.8632.4316-.3699.5549-.2466 1.2948.2466 1.7264.0617 0 .0617.0616.0617.0616s.1233.1234.185.1234c.1849.1233.4315.2466.6782.3699.1233.0617.2466.1233.3699.185.6166.3699 1.2331.7398 1.7264 1.2331.1233.1233.2466.3699.185.5549v-.0616l.3699.3699c-.0616.1233-.1233.185-.185.3083-1.9113 3.0212-2.7129 6.5972-2.1579 10.1117l-.4933.1233c0 .0616-.0617.0616-.0617.0616-.0616.185-.2466.3083-.4315.4316-.6783.185-1.3565.3083-2.0964.37-.1233 0-.2466 0-.3699.0616-.24664 0-.49327.0617-.7399.0617-.06165 0-.12331.0617-.24662.0617-.06166 0-.06166-.0001-.12332.0616-.67822.1233-1.10982.7399-.9865 1.4181.12331.5549.67822.9249 1.23313.8632.12331 0 .18497 0 .30828-.0617.06166 0 .06166 0 .06166-.0616 0-.0617.18497 0 .24663 0 .24664-.0617.49324-.185.67824-.2466.1233-.0617.2466-.1233.3699-.1233h.0617c.6782-.2467 1.2948-.4316 2.0346-.555h.0617c.185 0 .3699.0617.4933.185.0616 0 .0616.0617.0616.0617l.5549-.0617c.9249 2.8362 2.6513 5.3641 5.0559 7.2138.5549.4316 1.0481.8016 1.6647 1.1099l-.3083.4316c0 .0616.0617.0616.0617.0616.1233.185.1233.4316.0616.6166-.2466.6165-.6165 1.2331-.9865 1.788v.0617c-.0616.1233-.1233.1849-.2466.3083-.1233.1233-.2466.3699-.4316.6165-.0617.0617-.0617.1233-.1233.185 0 0 0 .0617-.0617.0617-.3083.6165-.0616 1.3564.4933 1.6647.1233.0616.3083.1233.4316.1233.4932 0 .9248-.3083 1.1715-.7399 0 0 0-.0616.0616-.0616 0-.0617.0617-.1233.1233-.185.0617-.2466.185-.4316.2467-.6782l.1233-.37c.1849-.6782.4932-1.2948.8015-1.9113.1233-.185.3083-.3083.4933-.37.0616 0 .0616 0 .0616-.0616l.2466-.4933c1.7264.6782 3.5145.9865 5.3642.9865 1.1098 0 2.2196-.1233 3.3294-.4316.6783-.1233 1.3565-.3699 1.973-.5549l.2467.4316c.0616 0 .0616 0 .0616.0617.185.0616.37.1849.4933.3699.3083.6166.6166 1.2331.8015 1.9114v.0616l.1233.37c.0617.2466.1233.4932.2467.6782.0616.0617.0616.1233.1233.185 0 0 0 .0616.0616.0616.2467.4316.6783.7399 1.1715.7399.185 0 .3083-.0617.4933-.1233.2466-.1233.4932-.37.5549-.6782.0616-.3083.0616-.6166-.0617-.9249 0-.0616-.0616-.0616-.0616-.0616 0-.0617-.0617-.1234-.1234-.185-.1233-.2466-.2466-.4316-.4316-.6166-.0616-.1233-.1233-.185-.2466-.3083v-.1233c-.4316-.5549-.7399-1.1715-.9865-1.788-.0616-.185-.0616-.4316.0617-.6166 0-.0616.0616-.0616.0616-.0616l-.1849-.4933c3.1444-1.9114 5.5491-4.8709 6.6589-8.3853l.4932.0617c.0617 0 .0617-.0617.0617-.0617.1233-.1233.3083-.185.4932-.185h.0617c.6782.1233 1.3564.3083 1.973.5549h.0617c.1233.0617.2466.1234.3699.1234.2466.1233.4316.2466.6782.3082.0617 0 .1233.0617.2467.0617.0616 0 .0616 0 .1233.0616.1233.0617.1849.0617.3083.0617.5549 0 1.0481-.3699 1.2331-.8632-.0617-.6782-.5549-1.1715-1.1098-1.2948Zm-17.8188-1.9113-1.6647.8015-1.6648-.8015-.4316-1.7881 1.1715-1.4797h1.8497l1.1715 1.4797-.4316 1.7881Zm10.05-4.0077c.3083 1.2948.37 2.5896.2467 3.8844l-5.8574-1.6648c-.5549-.1233-.8632-.6782-.7399-1.2331.0616-.185.1233-.3083.2466-.4316l4.6243-4.1927c.6782 1.1099 1.1714 2.343 1.4797 3.6378Zm-3.3294-5.9191-5.0559 3.5761c-.4316.2467-1.0481.185-1.3564-.2466-.1233-.1233-.185-.2466-.185-.4316l-.3699-6.2273c2.7129.3083 5.1175 1.4797 6.9672 3.3294Zm-11.1599-3.1445 1.2331-.2466-.3082 6.1657c0 .5549-.4933.9865-1.0482.9865-.185 0-.3083-.0617-.4933-.1233l-5.1175-3.6378c1.6031-1.5414 3.5761-2.6512 5.7341-3.1445Zm-7.5221 5.4258 4.5626 4.0694c.4316.3699.4932.9865.1233 1.4181-.1233.1849-.2466.2466-.4933.3083l-5.9806 1.7264c-.185-2.5896.4315-5.2409 1.788-7.5222Zm-1.0482 10.42 6.104-1.0481c.4933 0 .9865.3082 1.0482.8015.0617.185.0617.4316-.0617.6166l-2.3429 5.6724c-2.158-1.4181-3.8844-3.5761-4.7476-6.0424Zm13.9961 7.6454c-.8632.185-1.7264.3083-2.6512.3083-1.2948 0-2.6513-.2466-3.8844-.6165l3.0212-5.4875c.3082-.3699.8015-.4932 1.2331-.2466.185.1233.3083.2466.4933.4316l2.9595 5.3641c-.37.0617-.7399.1233-1.1715.2466Zm7.5221-5.3641c-.9248 1.4798-2.2196 2.7746-3.6994 3.6994l-2.4046-5.7957c-.1233-.4933.1233-.9865.5549-1.1715.185-.0617.37-.1233.5549-.1233l6.1657 1.0482c-.3083.8631-.6782 1.6647-1.1715 2.3429Z"/>
</svg>
