<svg width="522" height="280" viewBox="0 0 522 280" fill="none" xmlns="http://www.w3.org/2000/svg">
<path d="M176.812 55.4062H441.699V258.628C441.699 266.222 435.53 272.368 427.943 272.368H190.568C182.965 272.368 176.812 266.222 176.812 258.628V55.4062Z" fill="#DCD2FF" stroke="#333336" stroke-width="3"/>
<path d="M176.812 18.3564C176.812 10.7777 182.981 4.61621 190.568 4.61621H427.943C435.546 4.61621 441.699 10.7777 441.699 18.3564V55.4177H176.812V18.3564Z" stroke="#333336" stroke-width="3"/>
<path d="M209.431 39.0987C213.962 39.0987 217.635 35.4781 217.635 31.0118C217.635 26.5454 213.962 22.9248 209.431 22.9248C204.9 22.9248 201.227 26.5454 201.227 31.0118C201.227 35.4781 204.9 39.0987 209.431 39.0987Z" fill="#CCEDFE" stroke="#333336" stroke-width="3"/>
<path d="M240.622 39.0987C245.153 39.0987 248.826 35.4781 248.826 31.0118C248.826 26.5454 245.153 22.9248 240.622 22.9248C236.091 22.9248 232.418 26.5454 232.418 31.0118C232.418 35.4781 236.091 39.0987 240.622 39.0987Z" fill="#FFB279" stroke="#333336" stroke-width="3"/>
<path d="M271.817 39.0987C276.348 39.0987 280.021 35.4781 280.021 31.0118C280.021 26.5454 276.348 22.9248 271.817 22.9248C267.286 22.9248 263.613 26.5454 263.613 31.0118C263.613 35.4781 267.286 39.0987 271.817 39.0987Z" fill="#FFEA80" stroke="#333336" stroke-width="3"/>
<path d="M335.775 144.845V127.67C335.775 120.523 332.999 113.668 328.003 108.616C323.037 103.563 316.298 100.729 309.266 100.729C302.234 100.729 295.511 103.563 290.53 108.616C285.533 113.668 282.758 120.523 282.758 127.67V144.845" stroke="#333336" stroke-width="3" stroke-miterlimit="10"/>
<path d="M349.456 145.638H269.051C265.627 145.638 262.867 148.396 262.867 151.8V210.149C262.867 213.553 265.627 216.311 269.051 216.311H349.456C352.879 216.311 355.64 213.553 355.64 210.149V151.8C355.64 148.396 352.879 145.638 349.456 145.638Z" fill="white" stroke="#333336" stroke-width="3" stroke-miterlimit="10"/>
<path d="M319.281 175.546C319.281 177.24 318.865 178.904 318.048 180.383C317.23 181.861 316.043 183.109 314.609 184.018V191.119C314.609 192.536 314.054 193.892 313.036 194.893C312.049 195.894 310.676 196.449 309.258 196.449C307.839 196.449 306.482 195.879 305.464 194.893C304.477 193.892 303.891 192.536 303.891 191.119V184.018C302.411 183.094 301.223 181.8 300.406 180.259C299.573 178.719 299.172 176.994 299.218 175.268C299.28 173.528 299.789 171.833 300.699 170.355C301.609 168.876 302.889 167.644 304.415 166.812C305.942 165.965 307.669 165.549 309.412 165.564C311.154 165.595 312.881 166.072 314.378 166.95C315.873 167.828 317.122 169.092 317.971 170.601C318.834 172.111 319.297 173.82 319.297 175.561L319.281 175.546Z" fill="#DCD2FF" stroke="#333336" stroke-width="3" stroke-miterlimit="10"/>
<path d="M463.71 150.772L463.517 150.775C463.206 150.748 462.825 150.643 462.312 150.375L462.31 150.374C444.88 141.323 432.029 132.333 421.791 122.09C414.582 114.881 410.525 108.611 408.446 101.697L408.445 101.693C407.677 99.1586 407.29 96.846 407.247 94.8126C406.998 80.8209 406.831 66.6004 406.67 52.837L406.524 40.9724C406.522 40.8189 406.532 40.6606 406.542 40.5569C407.433 40.1871 408.328 39.8385 409.229 39.4928C411.249 38.7188 413.286 37.9337 415.167 36.8742L415.17 36.8726C421.251 33.434 425.338 28.0645 427.707 20.662L427.707 20.6598C427.907 20.0347 428.124 19.7973 428.275 19.6873C428.431 19.5744 428.738 19.4353 429.423 19.4269L429.517 19.4258L429.611 19.4246L429.704 19.4235L429.798 19.4224L429.891 19.4212L429.984 19.4201L430.077 19.419L430.17 19.4178L430.263 19.4167L430.356 19.4156L430.448 19.4144L430.541 19.4133L430.633 19.4122L430.725 19.4111L430.817 19.4099L430.909 19.4088L431.001 19.4077L431.092 19.4066L431.184 19.4055L431.275 19.4044L431.367 19.4033L431.458 19.4021L431.549 19.401L431.64 19.3999L431.73 19.3988L431.821 19.3977L431.912 19.3966L432.002 19.3955L432.092 19.3944L432.182 19.3933L432.272 19.3922L432.362 19.3911L432.452 19.39L432.542 19.3889L432.631 19.3878L432.721 19.3868L432.81 19.3857L432.899 19.3846L432.988 19.3835L433.077 19.3824L433.166 19.3813L433.255 19.3803L433.343 19.3792L433.431 19.3781L433.52 19.377L433.608 19.3759L433.696 19.3749L433.784 19.3738L433.872 19.3727L433.959 19.3717L434.047 19.3706L434.135 19.3695L434.222 19.3685L434.309 19.3674L434.396 19.3663L434.483 19.3653L434.57 19.3642L434.657 19.3632L434.743 19.3621L434.83 19.3611L434.916 19.36L435.003 19.359L435.089 19.3579L435.175 19.3569L435.261 19.3558L435.346 19.3548L435.432 19.3537L435.517 19.3527L435.603 19.3517L435.688 19.3506L435.773 19.3496L435.858 19.3485L435.943 19.3475L436.028 19.3465L436.113 19.3454L436.198 19.3444L436.282 19.3434L436.367 19.3424L436.451 19.3413L436.535 19.3403L436.619 19.3393L436.703 19.3382L436.787 19.3372L436.87 19.3362L436.954 19.3352L437.037 19.3342L437.121 19.3332L437.204 19.3321L437.287 19.3311L437.37 19.3301L437.453 19.3291L437.536 19.3281L437.618 19.3271L437.701 19.3261L437.783 19.3251L437.866 19.3241L437.948 19.3231L438.03 19.3221L438.112 19.3211L438.194 19.3201L438.275 19.3191L438.357 19.3181L438.439 19.3171L438.52 19.3161L438.601 19.3151L438.683 19.3141L438.764 19.3131L438.845 19.3122L438.925 19.3112L439.006 19.3102L439.087 19.3092L439.167 19.3082L439.248 19.3072L439.328 19.3063L439.408 19.3053L439.488 19.3043L439.568 19.3033L439.648 19.3024L439.728 19.3014L439.808 19.3004L439.887 19.2995L439.967 19.2985L440.046 19.2975L440.125 19.2966L440.204 19.2956L440.283 19.2946L440.362 19.2937L440.441 19.2927L440.52 19.2918L440.598 19.2908L440.677 19.2898L440.755 19.2889L440.833 19.2879L440.911 19.287L440.989 19.286L441.067 19.2851L441.145 19.2841L441.223 19.2832L441.3 19.2822L441.378 19.2813L441.455 19.2803L441.533 19.2794L441.61 19.2785L441.687 19.2775L441.764 19.2766L441.841 19.2757L441.917 19.2747L441.994 19.2738L442.071 19.2729L442.147 19.2719L442.223 19.271L442.3 19.2701L442.376 19.2691L442.452 19.2682L442.528 19.2673L442.604 19.2664L442.679 19.2654L442.755 19.2645L442.83 19.2636L442.906 19.2627L442.981 19.2618L443.056 19.2609L443.132 19.2599L443.207 19.259L443.281 19.2581L443.356 19.2572L443.431 19.2563L443.506 19.2554L443.58 19.2545L443.654 19.2536L443.729 19.2527L443.803 19.2518L443.877 19.2509L443.951 19.2499L444.025 19.2491L444.099 19.2481L444.173 19.2473L444.246 19.2464L444.32 19.2455L444.393 19.2446L444.466 19.2437L444.54 19.2428L444.613 19.2419L444.686 19.241L444.759 19.2401L444.832 19.2392L444.904 19.2383L444.977 19.2375L445.049 19.2366L445.122 19.2357L445.194 19.2348L445.266 19.2339L445.338 19.2331L445.411 19.2322L445.482 19.2313L445.554 19.2304L445.626 19.2295L445.698 19.2287L445.769 19.2278L445.841 19.2269L445.912 19.2261L445.983 19.2252L446.055 19.2243L446.126 19.2235L446.197 19.2226L446.268 19.2217L446.338 19.2209L446.409 19.22L446.48 19.2191L446.55 19.2183L446.621 19.2174L446.691 19.2166L446.761 19.2157L446.831 19.2149L446.901 19.214L446.971 19.2132L447.041 19.2123L447.111 19.2115L447.181 19.2106L447.25 19.2098L447.32 19.2089L447.389 19.2081L447.459 19.2072L447.528 19.2064L447.597 19.2055L447.666 19.2047L447.735 19.2039L447.804 19.203L447.872 19.2022L447.941 19.2013L448.01 19.2005L448.078 19.1997L448.147 19.1988L448.215 19.198L448.283 19.1972L448.351 19.1964L448.419 19.1955L448.487 19.1947L448.555 19.1939L448.623 19.193L448.691 19.1922L448.758 19.1914L448.826 19.1906L448.893 19.1897L448.96 19.1889L449.028 19.1881L449.095 19.1873L449.162 19.1865L449.229 19.1857L449.296 19.1848L449.363 19.184L449.429 19.1832L449.496 19.1824L449.563 19.1816L449.629 19.1808L449.695 19.18L449.762 19.1792L449.828 19.1784L449.894 19.1776L449.96 19.1768L450.026 19.176L450.092 19.1752L450.158 19.1743L450.224 19.1735L450.289 19.1727L450.355 19.1719L450.42 19.1712L450.485 19.1704L450.551 19.1695L450.616 19.1688L450.681 19.168L450.746 19.1672L450.811 19.1664L450.876 19.1656L450.941 19.1648L451.005 19.164L451.07 19.1632L451.135 19.1624L451.199 19.1617L451.263 19.1609L451.328 19.1601L451.392 19.1593L451.456 19.1585L451.52 19.1578L451.584 19.157L451.648 19.1562L451.712 19.1554L451.775 19.1546L451.839 19.1539L451.903 19.1531L451.966 19.1523L452.029 19.1515L452.093 19.1508L452.156 19.15L452.219 19.1492L452.282 19.1485L452.345 19.1477L452.408 19.1469L452.471 19.1462L452.534 19.1454L452.596 19.1446L452.659 19.1439L452.722 19.1431L452.784 19.1423L452.846 19.1416L452.909 19.1408L452.971 19.1401L453.033 19.1393L453.095 19.1386L453.157 19.1378L453.219 19.1371L453.281 19.1363L453.343 19.1356L453.404 19.1348L453.466 19.1341L453.527 19.1333L453.589 19.1326L453.65 19.1318L453.712 19.1311L453.773 19.1303L453.834 19.1296L453.895 19.1288L453.956 19.1281L454.017 19.1273L454.078 19.1266L454.139 19.1259L454.199 19.1251L454.26 19.1244L454.32 19.1236L454.381 19.1229L454.441 19.1222L454.502 19.1214L454.562 19.1207L454.622 19.12L454.682 19.1192L454.742 19.1185L454.802 19.1178L454.862 19.117L454.922 19.1163L454.982 19.1156L455.042 19.1149L455.101 19.1141L455.161 19.1134L455.22 19.1127L455.279 19.112L455.339 19.1112L455.398 19.1105L455.457 19.1098L455.516 19.1091L455.575 19.1083L455.634 19.1076L455.693 19.1069L455.752 19.1062L455.811 19.1055L455.87 19.1048L455.928 19.1041L455.987 19.1033L456.045 19.1026L456.104 19.1019L456.162 19.1012L456.22 19.1005L456.279 19.0998L456.337 19.0991L456.395 19.0984L456.453 19.0977L456.511 19.097L456.569 19.0963L456.627 19.0955L456.684 19.0948L456.742 19.0941L456.799 19.0934L456.857 19.0927L456.915 19.092L456.972 19.0913L457.029 19.0906L457.087 19.0899L457.144 19.0892L457.201 19.0885L457.258 19.0878L457.315 19.0872L457.372 19.0865L457.429 19.0858L457.486 19.0851L457.543 19.0844L457.599 19.0837L457.656 19.083L457.712 19.0823L457.769 19.0816L457.826 19.0809L457.882 19.0803L457.938 19.0796L457.994 19.0789L458.051 19.0782L458.107 19.0775L458.163 19.0768L458.219 19.0762L458.275 19.0755L458.331 19.0748L458.387 19.0741L458.442 19.0734L458.498 19.0727L458.554 19.0721L458.609 19.0714L458.665 19.0707L458.72 19.07L458.776 19.0694L458.831 19.0687L458.886 19.068L458.941 19.0673L458.996 19.0667L459.052 19.066L459.107 19.0653L459.162 19.0647L459.216 19.064L459.271 19.0633L459.326 19.0627L459.381 19.062L459.435 19.0613L459.49 19.0607L459.545 19.06L459.599 19.0593L459.654 19.0587L459.708 19.058L459.762 19.0573L459.817 19.0567L459.871 19.056L459.925 19.0554L459.979 19.0547L460.033 19.054L460.087 19.0534L460.141 19.0527L460.195 19.0521L460.249 19.0514L460.302 19.0508L460.356 19.0501L460.41 19.0494L460.463 19.0488L460.517 19.0482L460.571 19.0475L460.624 19.0468L460.677 19.0462L460.731 19.0455L460.784 19.0449L460.837 19.0442L460.89 19.0436L460.943 19.043L460.996 19.0423L461.049 19.0417L461.102 19.041L461.155 19.0404L461.208 19.0397L461.261 19.0391L461.314 19.0384L461.366 19.0378L461.419 19.0372L461.471 19.0365L461.524 19.0359L461.576 19.0352L461.629 19.0346L461.681 19.034L461.734 19.0333L461.786 19.0327L461.838 19.0321L461.89 19.0314L461.942 19.0308L461.994 19.0301L462.046 19.0295L462.098 19.0289L462.15 19.0282L462.202 19.0276L462.254 19.027L462.306 19.0264L462.358 19.0257L462.409 19.0251L462.461 19.0245L462.512 19.0238L462.564 19.0232L462.615 19.0226L462.667 19.022L462.718 19.0213L462.769 19.0207L462.821 19.0201L462.872 19.0195L462.923 19.0188L462.974 19.0182L463.025 19.0176L463.076 19.017L463.127 19.0163L463.178 19.0157L463.229 19.0151L463.28 19.0145L463.331 19.0139L463.382 19.0133L463.432 19.0126L463.483 19.012L463.534 19.0114L463.584 19.0108L463.635 19.0102L463.685 19.0096L463.736 19.0089L463.786 19.0083L463.836 19.0077L463.887 19.0071L463.937 19.0065L463.987 19.0059L464.037 19.0053L464.088 19.0047L464.138 19.004L464.188 19.0034L464.238 19.0028L464.288 19.0022L464.338 19.0016L480.38 18.8062L480.405 18.8059L480.431 18.8056L480.456 18.8053L480.481 18.805L480.506 18.8046L480.532 18.8043L480.557 18.804L480.582 18.8037L480.607 18.8034L480.633 18.8031L480.658 18.8028L480.683 18.8025L480.709 18.8022L480.734 18.8019L480.759 18.8016L480.784 18.8013L480.81 18.8009L480.835 18.8006L480.86 18.8003L480.886 18.8L480.911 18.7997L480.936 18.7994L480.962 18.7991L480.987 18.7988L481.013 18.7985L481.038 18.7982L481.063 18.7979L481.089 18.7976L481.114 18.7972L481.139 18.7969L481.165 18.7966L481.19 18.7963L481.216 18.796L481.241 18.7957L481.267 18.7954L481.292 18.7951L481.317 18.7948L481.343 18.7945L481.368 18.7941L481.394 18.7938L481.419 18.7935L481.445 18.7932L481.47 18.7929L481.496 18.7926L481.521 18.7923L481.547 18.792L481.572 18.7917L481.598 18.7913L481.623 18.791L481.649 18.7907L481.674 18.7904L481.7 18.7901L481.725 18.7898L481.751 18.7895L481.776 18.7892L481.802 18.7889L481.827 18.7886L481.853 18.7882L481.878 18.7879L481.904 18.7876L481.93 18.7873L481.955 18.787L481.981 18.7867L482.006 18.7864L482.032 18.7861L482.058 18.7857L482.083 18.7854L482.109 18.7851L482.135 18.7848L482.16 18.7845L482.186 18.7842L482.212 18.7839L482.237 18.7836L482.263 18.7832L482.289 18.7829L482.314 18.7826L482.34 18.7823L482.366 18.782L482.391 18.7817L482.417 18.7814L482.443 18.7811L482.469 18.7807L482.494 18.7804L482.52 18.7801L482.546 18.7798L482.572 18.7795L482.597 18.7792L482.623 18.7789L482.649 18.7785L482.675 18.7782L482.701 18.7779L482.726 18.7776L482.752 18.7773L482.778 18.777L482.804 18.7767L482.83 18.7763L482.856 18.776L482.881 18.7757L482.907 18.7754L482.933 18.7751L482.959 18.7748L482.985 18.7745L483.011 18.7741L483.037 18.7738L483.063 18.7735L483.089 18.7732L483.114 18.7729L483.14 18.7726L483.166 18.7722L483.192 18.7719L483.218 18.7716L483.244 18.7713L483.27 18.771L483.296 18.7707L483.322 18.7704L483.348 18.77L483.374 18.7697L483.4 18.7694L483.426 18.7691L483.452 18.7688L483.478 18.7685L483.504 18.7681L483.53 18.7678L483.557 18.7675L483.583 18.7672L483.609 18.7669L483.635 18.7665L483.661 18.7662L483.687 18.7659L483.713 18.7656L483.739 18.7653L483.765 18.7649L483.792 18.7646L483.818 18.7643L483.844 18.764L483.87 18.7637L483.896 18.7634L483.922 18.763L483.949 18.7627L483.975 18.7624L484.001 18.7621L484.027 18.7617L484.054 18.7614L484.08 18.7611L484.106 18.7608L484.132 18.7605L484.159 18.7602L484.185 18.7598L484.211 18.7595L484.237 18.7592L484.264 18.7589L484.29 18.7586L484.316 18.7582L484.343 18.7579L484.369 18.7576L484.395 18.7573L484.422 18.757L484.448 18.7566L484.475 18.7563L484.501 18.756L484.527 18.7557L484.554 18.7553L484.58 18.755L484.607 18.7547L484.633 18.7544L484.66 18.7541L484.686 18.7537L484.713 18.7534L484.739 18.7531L484.765 18.7528L484.792 18.7524L484.819 18.7521L484.845 18.7518L484.872 18.7515L484.898 18.7511L484.925 18.7508L484.951 18.7505L484.978 18.7502L485.004 18.7498L485.031 18.7495L485.058 18.7492L485.084 18.7489L485.111 18.7486L485.137 18.7482L485.164 18.7479L485.191 18.7476L485.217 18.7472L485.244 18.7469L485.271 18.7466L485.297 18.7463L485.324 18.746L485.351 18.7456L485.378 18.7453L485.404 18.745L485.431 18.7446L485.458 18.7443L485.485 18.744L485.512 18.7437L485.538 18.7434L485.565 18.743L485.592 18.7427L485.619 18.7424L485.646 18.742L485.672 18.7417L485.699 18.7414L485.726 18.7411L485.753 18.7407L485.78 18.7404L485.807 18.7401L485.834 18.7397L485.861 18.7394L485.888 18.7391L485.915 18.7388L485.942 18.7384L485.969 18.7381L485.996 18.7378L486.023 18.7375L486.05 18.7371L486.077 18.7368L486.104 18.7365L486.131 18.7361L486.158 18.7358L486.185 18.7355L486.212 18.7351L486.239 18.7348L486.266 18.7345L486.293 18.7342L486.32 18.7338L486.347 18.7335L486.375 18.7332L486.402 18.7328L486.429 18.7325L486.456 18.7322L486.483 18.7318L486.51 18.7315L486.538 18.7312L486.565 18.7308L486.592 18.7305L486.619 18.7302L486.647 18.7298L486.674 18.7295L486.701 18.7292L486.728 18.7289L486.756 18.7285L486.783 18.7282L486.81 18.7279L486.838 18.7275L486.865 18.7272L486.892 18.7268L486.92 18.7265L486.947 18.7262L486.975 18.7259L487.002 18.7255L487.029 18.7252L487.057 18.7248L487.085 18.7245L487.112 18.7242L487.139 18.7238L487.167 18.7235L487.194 18.7232L487.222 18.7228L487.249 18.7225L487.277 18.7222L487.305 18.7218L487.332 18.7215L487.36 18.7212L487.387 18.7208L487.415 18.7205L487.443 18.7201L487.47 18.7198L487.498 18.7195L487.525 18.7191L487.553 18.7188L487.581 18.7185L487.608 18.7181L487.636 18.7178L487.664 18.7175L487.692 18.7171L487.719 18.7168L487.747 18.7164L487.775 18.7161L487.803 18.7158L487.831 18.7154L487.858 18.7151L487.886 18.7148L487.914 18.7144L487.942 18.7141L487.97 18.7137L487.998 18.7134L488.026 18.713L488.053 18.7127L488.081 18.7124L488.109 18.712L488.137 18.7117L488.165 18.7114L488.193 18.711L488.221 18.7107L488.249 18.7103L488.277 18.71L488.305 18.7096L488.333 18.7093L488.361 18.709L488.389 18.7086L488.417 18.7083L488.446 18.7079L488.474 18.7076L488.502 18.7072L488.53 18.7069L488.558 18.7066L488.586 18.7062L488.614 18.7059L488.643 18.7055L488.671 18.7052L488.699 18.7048L488.727 18.7045L488.756 18.7042L488.784 18.7038L488.812 18.7035L488.84 18.7031L488.869 18.7028L488.897 18.7024L488.926 18.7021L488.954 18.7017L488.982 18.7014L489.01 18.7011L489.039 18.7007L489.067 18.7004L489.096 18.7L489.124 18.6997L489.153 18.6993L489.181 18.699L489.21 18.6986L489.238 18.6983L489.267 18.6979L489.295 18.6976L489.324 18.6972L489.352 18.6969L489.381 18.6965L489.409 18.6962L489.438 18.6958L489.467 18.6955L489.495 18.6951L489.524 18.6948L489.552 18.6944L489.581 18.6941L489.61 18.6937L489.639 18.6934L489.667 18.693L489.696 18.6927L489.725 18.6923L489.754 18.692L489.782 18.6916L489.811 18.6913L489.84 18.6909L489.869 18.6906L489.898 18.6903L489.927 18.6899L489.955 18.6895L489.984 18.6892L490.013 18.6888L490.042 18.6885L490.071 18.6881L490.1 18.6878L490.129 18.6874L490.158 18.6871L490.187 18.6867L490.216 18.6864L490.245 18.686L490.274 18.6857L490.303 18.6853L490.332 18.6849L490.361 18.6846L490.39 18.6842L490.42 18.6839L490.449 18.6835L490.478 18.6832L490.507 18.6828L490.536 18.6825L490.565 18.6821L490.595 18.6818L490.624 18.6814L490.653 18.681L490.682 18.6807L490.712 18.6803L490.741 18.68L490.77 18.6796L490.8 18.6793L490.829 18.6789L490.858 18.6785L490.888 18.6782L490.917 18.6778L490.946 18.6775L490.976 18.6771L491.005 18.6767L491.035 18.6764L491.064 18.676L491.094 18.6757L491.123 18.6753L491.153 18.6749L491.182 18.6746L491.212 18.6742L491.242 18.6739L491.271 18.6735L491.301 18.6731L491.33 18.6728L491.36 18.6724L491.39 18.6721L491.419 18.6717L491.449 18.6714L491.479 18.671L491.509 18.6706L491.538 18.6703L491.568 18.6699L491.598 18.6695L491.628 18.6692L491.657 18.6688L491.687 18.6684L491.717 18.6681L491.747 18.6677L491.777 18.6674L491.807 18.667L491.837 18.6666L491.867 18.6663L491.896 18.6659L491.926 18.6655L491.956 18.6652L491.986 18.6648L492.016 18.6644L492.047 18.6641L492.077 18.6637L492.107 18.6633L492.137 18.663L492.167 18.6626L492.197 18.6622L492.227 18.6619L492.257 18.6615L492.287 18.6611L492.318 18.6608L492.348 18.6604L492.378 18.66L492.408 18.6597L492.439 18.6593L492.469 18.6589L492.499 18.6586L492.529 18.6582L492.56 18.6578L492.59 18.6574L492.621 18.6571L492.651 18.6567L492.681 18.6563L492.712 18.656L492.742 18.6556L492.773 18.6552L492.803 18.6548L492.834 18.6545L492.864 18.6541L492.895 18.6537L492.925 18.6534L492.956 18.653L492.987 18.6526L493.017 18.6522L493.048 18.6519L493.078 18.6515L493.109 18.6511L493.14 18.6507L493.17 18.6504L493.201 18.65L493.232 18.6496L493.263 18.6493L493.293 18.6489L493.324 18.6485L493.355 18.6481L493.386 18.6478L493.417 18.6474L493.447 18.647L493.478 18.6466L493.509 18.6462L493.54 18.6459L493.571 18.6455L493.602 18.6451L493.633 18.6447L493.664 18.6444L493.695 18.644L493.726 18.6436L493.757 18.6432L493.788 18.6429L493.819 18.6425L493.851 18.6421L493.882 18.6417L493.913 18.6413L493.944 18.641L493.975 18.6406L494.006 18.6402L494.038 18.6398L494.069 18.6394L494.1 18.639L494.131 18.6387L494.163 18.6383L494.194 18.6379L494.226 18.6375L494.257 18.6371L494.288 18.6368L494.32 18.6364L494.351 18.636L494.382 18.6356L494.414 18.6352L494.445 18.6348L494.477 18.6345L494.509 18.6341L494.54 18.6337L494.572 18.6333L494.603 18.6329C495.083 18.6271 495.376 18.6419 495.623 18.748C495.771 18.8114 496.065 18.9704 496.315 19.663C498.187 24.901 500.846 29.1398 504.387 32.3374C507.935 35.5409 512.289 37.6251 517.43 38.6701L517.445 38.6731C517.537 38.6909 517.662 38.7263 517.886 38.8104L517.914 38.8207L517.942 38.8301L518.039 38.8629L518.06 40.5686C518.119 45.3857 518.16 50.2034 518.201 55.0252L518.211 56.1365C518.31 67.1594 518.412 78.5397 518.744 89.7337C518.994 98.1334 516.567 105.795 511.254 113.236C505.383 121.462 497.814 128.777 488.07 135.599C483.227 138.992 478.118 142.156 473.114 145.256L472.613 145.566C472.24 145.797 471.866 146.028 471.493 146.259C469.316 147.607 467.13 148.96 464.966 150.34C464.458 150.663 464.063 150.768 463.71 150.772Z" fill="white"/>
<path d="M472.613 145.566L473.114 145.256C478.118 142.156 483.227 138.992 488.07 135.599C497.814 128.777 505.383 121.462 511.254 113.236C516.567 105.795 518.994 98.1334 518.744 89.7337C518.412 78.5397 518.31 67.1594 518.211 56.1365L518.201 55.0252C518.16 50.2034 518.119 45.3857 518.06 40.5686L518.039 38.8629L517.942 38.8301L517.914 38.8207L517.886 38.8104C517.662 38.7263 517.537 38.6909 517.445 38.6731L517.43 38.6701C512.289 37.6251 507.935 35.5409 504.387 32.3374C500.846 29.1398 498.187 24.901 496.315 19.663C496.065 18.9704 495.771 18.8114 495.623 18.748C495.376 18.6419 495.083 18.6271 494.603 18.6329L494.572 18.6333L494.54 18.6337L494.509 18.6341L494.477 18.6345L494.445 18.6348L494.414 18.6352L494.382 18.6356L494.351 18.636L494.32 18.6364L494.288 18.6368L494.257 18.6371L494.226 18.6375L494.194 18.6379L494.163 18.6383L494.131 18.6387L494.1 18.639L494.069 18.6394L494.038 18.6398L494.006 18.6402L493.975 18.6406L493.944 18.641L493.913 18.6413L493.882 18.6417L493.851 18.6421L493.819 18.6425L493.788 18.6429L493.757 18.6432L493.726 18.6436L493.695 18.644L493.664 18.6444L493.633 18.6447L493.602 18.6451L493.571 18.6455L493.54 18.6459L493.509 18.6462L493.478 18.6466L493.447 18.647L493.417 18.6474L493.386 18.6478L493.355 18.6481L493.324 18.6485L493.293 18.6489L493.263 18.6493L493.232 18.6496L493.201 18.65L493.17 18.6504L493.14 18.6507L493.109 18.6511L493.078 18.6515L493.048 18.6519L493.017 18.6522L492.987 18.6526L492.956 18.653L492.925 18.6534L492.895 18.6537L492.864 18.6541L492.834 18.6545L492.803 18.6548L492.773 18.6552L492.742 18.6556L492.712 18.656L492.681 18.6563L492.651 18.6567L492.621 18.6571L492.59 18.6574L492.56 18.6578L492.529 18.6582L492.499 18.6586L492.469 18.6589L492.439 18.6593L492.408 18.6597L492.378 18.66L492.348 18.6604L492.318 18.6608L492.287 18.6611L492.257 18.6615L492.227 18.6619L492.197 18.6622L492.167 18.6626L492.137 18.663L492.107 18.6633L492.077 18.6637L492.047 18.6641L492.016 18.6644L491.986 18.6648L491.956 18.6652L491.926 18.6655L491.896 18.6659L491.867 18.6663L491.837 18.6666L491.807 18.667L491.777 18.6674L491.747 18.6677L491.717 18.6681L491.687 18.6684L491.657 18.6688L491.628 18.6692L491.598 18.6695L491.568 18.6699L491.538 18.6703L491.509 18.6706L491.479 18.671L491.449 18.6714L491.419 18.6717L491.39 18.6721L491.36 18.6724L491.33 18.6728L491.301 18.6731L491.271 18.6735L491.242 18.6739L491.212 18.6742L491.182 18.6746L491.153 18.6749L491.123 18.6753L491.094 18.6757L491.064 18.676L491.035 18.6764L491.005 18.6767L490.976 18.6771L490.946 18.6775L490.917 18.6778L490.888 18.6782L490.858 18.6785L490.829 18.6789L490.8 18.6793L490.77 18.6796L490.741 18.68L490.712 18.6803L490.682 18.6807L490.653 18.681L490.624 18.6814L490.595 18.6818L490.565 18.6821L490.536 18.6825L490.507 18.6828L490.478 18.6832L490.449 18.6835L490.42 18.6839L490.39 18.6842L490.361 18.6846L490.332 18.6849L490.303 18.6853L490.274 18.6857L490.245 18.686L490.216 18.6864L490.187 18.6867L490.158 18.6871L490.129 18.6874L490.1 18.6878L490.071 18.6881L490.042 18.6885L490.013 18.6888L489.984 18.6892L489.955 18.6895L489.927 18.6899L489.898 18.6903L489.869 18.6906L489.84 18.6909L489.811 18.6913L489.782 18.6916L489.754 18.692L489.725 18.6923L489.696 18.6927L489.667 18.693L489.639 18.6934L489.61 18.6937L489.581 18.6941L489.552 18.6944L489.524 18.6948L489.495 18.6951L489.467 18.6955L489.438 18.6958L489.409 18.6962L489.381 18.6965L489.352 18.6969L489.324 18.6972L489.295 18.6976L489.267 18.6979L489.238 18.6983L489.21 18.6986L489.181 18.699L489.153 18.6993L489.124 18.6997L489.096 18.7L489.067 18.7004L489.039 18.7007L489.01 18.7011L488.982 18.7014L488.954 18.7017L488.926 18.7021L488.897 18.7024L488.869 18.7028L488.84 18.7031L488.812 18.7035L488.784 18.7038L488.756 18.7042L488.727 18.7045L488.699 18.7048L488.671 18.7052L488.643 18.7055L488.614 18.7059L488.586 18.7062L488.558 18.7066L488.53 18.7069L488.502 18.7072L488.474 18.7076L488.446 18.7079L488.417 18.7083L488.389 18.7086L488.361 18.709L488.333 18.7093L488.305 18.7096L488.277 18.71L488.249 18.7103L488.221 18.7107L488.193 18.711L488.165 18.7114L488.137 18.7117L488.109 18.712L488.081 18.7124L488.053 18.7127L488.026 18.713L487.998 18.7134L487.97 18.7137L487.942 18.7141L487.914 18.7144L487.886 18.7148L487.858 18.7151L487.831 18.7154L487.803 18.7158L487.775 18.7161L487.747 18.7164L487.719 18.7168L487.692 18.7171L487.664 18.7175L487.636 18.7178L487.608 18.7181L487.581 18.7185L487.553 18.7188L487.525 18.7191L487.498 18.7195L487.47 18.7198L487.443 18.7201L487.415 18.7205L487.387 18.7208L487.36 18.7212L487.332 18.7215L487.305 18.7218L487.277 18.7222L487.249 18.7225L487.222 18.7228L487.194 18.7232L487.167 18.7235L487.139 18.7238L487.112 18.7242L487.085 18.7245L487.057 18.7248L487.029 18.7252L487.002 18.7255L486.975 18.7259L486.947 18.7262L486.92 18.7265L486.892 18.7268L486.865 18.7272L486.838 18.7275L486.81 18.7279L486.783 18.7282L486.756 18.7285L486.728 18.7289L486.701 18.7292L486.674 18.7295L486.647 18.7298L486.619 18.7302L486.592 18.7305L486.565 18.7308L486.538 18.7312L486.51 18.7315L486.483 18.7318L486.456 18.7322L486.429 18.7325L486.402 18.7328L486.375 18.7332L486.347 18.7335L486.32 18.7338L486.293 18.7342L486.266 18.7345L486.239 18.7348L486.212 18.7351L486.185 18.7355L486.158 18.7358L486.131 18.7361L486.104 18.7365L486.077 18.7368L486.05 18.7371L486.023 18.7375L485.996 18.7378L485.969 18.7381L485.942 18.7384L485.915 18.7388L485.888 18.7391L485.861 18.7394L485.834 18.7397L485.807 18.7401L485.78 18.7404L485.753 18.7407L485.726 18.7411L485.699 18.7414L485.672 18.7417L485.646 18.742L485.619 18.7424L485.592 18.7427L485.565 18.743L485.538 18.7434L485.512 18.7437L485.485 18.744L485.458 18.7443L485.431 18.7446L485.404 18.745L485.378 18.7453L485.351 18.7456L485.324 18.746L485.297 18.7463L485.271 18.7466L485.244 18.7469L485.217 18.7472L485.191 18.7476L485.164 18.7479L485.137 18.7482L485.111 18.7486L485.084 18.7489L485.058 18.7492L485.031 18.7495L485.004 18.7498L484.978 18.7502L484.951 18.7505L484.925 18.7508L484.898 18.7511L484.872 18.7515L484.845 18.7518L484.819 18.7521L484.792 18.7524L484.765 18.7528L484.739 18.7531L484.713 18.7534L484.686 18.7537L484.66 18.7541L484.633 18.7544L484.607 18.7547L484.58 18.755L484.554 18.7553L484.527 18.7557L484.501 18.756L484.475 18.7563L484.448 18.7566L484.422 18.757L484.395 18.7573L484.369 18.7576L484.343 18.7579L484.316 18.7582L484.29 18.7586L484.264 18.7589L484.237 18.7592L484.211 18.7595L484.185 18.7598L484.159 18.7602L484.132 18.7605L484.106 18.7608L484.08 18.7611L484.054 18.7614L484.027 18.7617L484.001 18.7621L483.975 18.7624L483.949 18.7627L483.922 18.763L483.896 18.7634L483.87 18.7637L483.844 18.764L483.818 18.7643L483.792 18.7646L483.765 18.7649L483.739 18.7653L483.713 18.7656L483.687 18.7659L483.661 18.7662L483.635 18.7665L483.609 18.7669L483.583 18.7672L483.557 18.7675L483.53 18.7678L483.504 18.7681L483.478 18.7685L483.452 18.7688L483.426 18.7691L483.4 18.7694L483.374 18.7697L483.348 18.77L483.322 18.7704L483.296 18.7707L483.27 18.771L483.244 18.7713L483.218 18.7716L483.192 18.7719L483.166 18.7722L483.14 18.7726L483.114 18.7729L483.089 18.7732L483.063 18.7735L483.037 18.7738L483.011 18.7741L482.985 18.7745L482.959 18.7748L482.933 18.7751L482.907 18.7754L482.881 18.7757L482.856 18.776L482.83 18.7763L482.804 18.7767L482.778 18.777L482.752 18.7773L482.726 18.7776L482.701 18.7779L482.675 18.7782L482.649 18.7785L482.623 18.7789L482.597 18.7792L482.572 18.7795L482.546 18.7798L482.52 18.7801L482.494 18.7804L482.469 18.7807L482.443 18.7811L482.417 18.7814L482.391 18.7817L482.366 18.782L482.34 18.7823L482.314 18.7826L482.289 18.7829L482.263 18.7832L482.237 18.7836L482.212 18.7839L482.186 18.7842L482.16 18.7845L482.135 18.7848L482.109 18.7851L482.083 18.7854L482.058 18.7857L482.032 18.7861L482.006 18.7864L481.981 18.7867L481.955 18.787L481.93 18.7873L481.904 18.7876L481.878 18.7879L481.853 18.7882L481.827 18.7886L481.802 18.7889L481.776 18.7892L481.751 18.7895L481.725 18.7898L481.7 18.7901L481.674 18.7904L481.649 18.7907L481.623 18.791L481.598 18.7913L481.572 18.7917L481.547 18.792L481.521 18.7923L481.496 18.7926L481.47 18.7929L481.445 18.7932L481.419 18.7935L481.394 18.7938L481.368 18.7941L481.343 18.7945L481.317 18.7948L481.292 18.7951L481.267 18.7954L481.241 18.7957L481.216 18.796L481.19 18.7963L481.165 18.7966L481.139 18.7969L481.114 18.7972L481.089 18.7976L481.063 18.7979L481.038 18.7982L481.013 18.7985L480.987 18.7988L480.962 18.7991L480.936 18.7994L480.911 18.7997L480.886 18.8L480.86 18.8003L480.835 18.8006L480.81 18.8009L480.784 18.8013L480.759 18.8016L480.734 18.8019L480.709 18.8022L480.683 18.8025L480.658 18.8028L480.633 18.8031L480.607 18.8034L480.582 18.8037L480.557 18.804L480.532 18.8043L480.506 18.8046L480.481 18.805L480.456 18.8053L480.431 18.8056L480.405 18.8059L480.38 18.8062L464.338 19.0016L464.288 19.0022L464.238 19.0028L464.188 19.0034L464.138 19.004L464.088 19.0047L464.037 19.0053L463.987 19.0059L463.937 19.0065L463.887 19.0071L463.836 19.0077L463.786 19.0083L463.736 19.0089L463.685 19.0096L463.635 19.0102L463.584 19.0108L463.534 19.0114L463.483 19.012L463.432 19.0126L463.382 19.0133L463.331 19.0139L463.28 19.0145L463.229 19.0151L463.178 19.0157L463.127 19.0163L463.076 19.017L463.025 19.0176L462.974 19.0182L462.923 19.0188L462.872 19.0195L462.821 19.0201L462.769 19.0207L462.718 19.0213L462.667 19.022L462.615 19.0226L462.564 19.0232L462.512 19.0238L462.461 19.0245L462.409 19.0251L462.358 19.0257L462.306 19.0264L462.254 19.027L462.202 19.0276L462.15 19.0282L462.098 19.0289L462.046 19.0295L461.994 19.0301L461.942 19.0308L461.89 19.0314L461.838 19.0321L461.786 19.0327L461.734 19.0333L461.681 19.034L461.629 19.0346L461.576 19.0352L461.524 19.0359L461.471 19.0365L461.419 19.0372L461.366 19.0378L461.314 19.0384L461.261 19.0391L461.208 19.0397L461.155 19.0404L461.102 19.041L461.049 19.0417L460.996 19.0423L460.943 19.043L460.89 19.0436L460.837 19.0442L460.784 19.0449L460.731 19.0455L460.677 19.0462L460.624 19.0468L460.571 19.0475L460.517 19.0482L460.463 19.0488L460.41 19.0494L460.356 19.0501L460.302 19.0508L460.249 19.0514L460.195 19.0521L460.141 19.0527L460.087 19.0534L460.033 19.054L459.979 19.0547L459.925 19.0554L459.871 19.056L459.817 19.0567L459.762 19.0573L459.708 19.058L459.654 19.0587L459.599 19.0593L459.545 19.06L459.49 19.0607L459.435 19.0613L459.381 19.062L459.326 19.0627L459.271 19.0633L459.216 19.064L459.162 19.0647L459.107 19.0653L459.052 19.066L458.996 19.0667L458.941 19.0673L458.886 19.068L458.831 19.0687L458.776 19.0694L458.72 19.07L458.665 19.0707L458.609 19.0714L458.554 19.0721L458.498 19.0727L458.442 19.0734L458.387 19.0741L458.331 19.0748L458.275 19.0755L458.219 19.0762L458.163 19.0768L458.107 19.0775L458.051 19.0782L457.994 19.0789L457.938 19.0796L457.882 19.0803L457.826 19.0809L457.769 19.0816L457.712 19.0823L457.656 19.083L457.599 19.0837L457.543 19.0844L457.486 19.0851L457.429 19.0858L457.372 19.0865L457.315 19.0872L457.258 19.0878L457.201 19.0885L457.144 19.0892L457.087 19.0899L457.029 19.0906L456.972 19.0913L456.915 19.092L456.857 19.0927L456.799 19.0934L456.742 19.0941L456.684 19.0948L456.627 19.0955L456.569 19.0963L456.511 19.097L456.453 19.0977L456.395 19.0984L456.337 19.0991L456.279 19.0998L456.22 19.1005L456.162 19.1012L456.104 19.1019L456.045 19.1026L455.987 19.1033L455.928 19.1041L455.87 19.1048L455.811 19.1055L455.752 19.1062L455.693 19.1069L455.634 19.1076L455.575 19.1083L455.516 19.1091L455.457 19.1098L455.398 19.1105L455.339 19.1112L455.279 19.112L455.22 19.1127L455.161 19.1134L455.101 19.1141L455.042 19.1149L454.982 19.1156L454.922 19.1163L454.862 19.117L454.802 19.1178L454.742 19.1185L454.682 19.1192L454.622 19.12L454.562 19.1207L454.502 19.1214L454.441 19.1222L454.381 19.1229L454.32 19.1236L454.26 19.1244L454.199 19.1251L454.139 19.1259L454.078 19.1266L454.017 19.1273L453.956 19.1281L453.895 19.1288L453.834 19.1296L453.773 19.1303L453.712 19.1311L453.65 19.1318L453.589 19.1326L453.527 19.1333L453.466 19.1341L453.404 19.1348L453.343 19.1356L453.281 19.1363L453.219 19.1371L453.157 19.1378L453.095 19.1386L453.033 19.1393L452.971 19.1401L452.909 19.1408L452.846 19.1416L452.784 19.1423L452.722 19.1431L452.659 19.1439L452.596 19.1446L452.534 19.1454L452.471 19.1462L452.408 19.1469L452.345 19.1477L452.282 19.1485L452.219 19.1492L452.156 19.15L452.093 19.1508L452.029 19.1515L451.966 19.1523L451.903 19.1531L451.839 19.1539L451.775 19.1546L451.712 19.1554L451.648 19.1562L451.584 19.157L451.52 19.1578L451.456 19.1585L451.392 19.1593L451.328 19.1601L451.263 19.1609L451.199 19.1617L451.135 19.1624L451.07 19.1632L451.005 19.164L450.941 19.1648L450.876 19.1656L450.811 19.1664L450.746 19.1672L450.681 19.168L450.616 19.1688L450.551 19.1695L450.485 19.1704L450.42 19.1712L450.355 19.1719L450.289 19.1727L450.224 19.1735L450.158 19.1743L450.092 19.1752L450.026 19.176L449.96 19.1768L449.894 19.1776L449.828 19.1784L449.762 19.1792L449.695 19.18L449.629 19.1808L449.563 19.1816L449.496 19.1824L449.429 19.1832L449.363 19.184L449.296 19.1848L449.229 19.1857L449.162 19.1865L449.095 19.1873L449.028 19.1881L448.96 19.1889L448.893 19.1897L448.826 19.1906L448.758 19.1914L448.691 19.1922L448.623 19.193L448.555 19.1939L448.487 19.1947L448.419 19.1955L448.351 19.1964L448.283 19.1972L448.215 19.198L448.147 19.1988L448.078 19.1997L448.01 19.2005L447.941 19.2013L447.872 19.2022L447.804 19.203L447.735 19.2039L447.666 19.2047L447.597 19.2055L447.528 19.2064L447.459 19.2072L447.389 19.2081L447.32 19.2089L447.25 19.2098L447.181 19.2106L447.111 19.2115L447.041 19.2123L446.971 19.2132L446.901 19.214L446.831 19.2149L446.761 19.2157L446.691 19.2166L446.621 19.2174L446.55 19.2183L446.48 19.2191L446.409 19.22L446.338 19.2209L446.268 19.2217L446.197 19.2226L446.126 19.2235L446.055 19.2243L445.983 19.2252L445.912 19.2261L445.841 19.2269L445.769 19.2278L445.698 19.2287L445.626 19.2295L445.554 19.2304L445.482 19.2313L445.411 19.2322L445.338 19.2331L445.266 19.2339L445.194 19.2348L445.122 19.2357L445.049 19.2366L444.977 19.2375L444.904 19.2383L444.832 19.2392L444.759 19.2401L444.686 19.241L444.613 19.2419L444.54 19.2428L444.466 19.2437L444.393 19.2446L444.32 19.2455L444.246 19.2464L444.173 19.2473L444.099 19.2481L444.025 19.2491L443.951 19.2499L443.877 19.2509L443.803 19.2518L443.729 19.2527L443.654 19.2536L443.58 19.2545L443.506 19.2554L443.431 19.2563L443.356 19.2572L443.281 19.2581L443.206 19.259L443.132 19.2599L443.056 19.2609L442.981 19.2618L442.906 19.2627L442.83 19.2636L442.755 19.2645L442.679 19.2654L442.604 19.2664L442.528 19.2673L442.452 19.2682L442.376 19.2691L442.3 19.2701L442.223 19.271L442.147 19.2719L442.071 19.2729L441.994 19.2738L441.917 19.2747L441.841 19.2757L441.764 19.2766L441.687 19.2775L441.61 19.2785L441.533 19.2794L441.455 19.2803L441.378 19.2813L441.3 19.2822L441.223 19.2832L441.145 19.2841L441.067 19.2851L440.989 19.286L440.911 19.287L440.833 19.2879L440.755 19.2889L440.677 19.2898L440.598 19.2908L440.52 19.2918L440.441 19.2927L440.362 19.2937L440.283 19.2946L440.204 19.2956L440.125 19.2966L440.046 19.2975L439.967 19.2985L439.887 19.2995L439.808 19.3004L439.728 19.3014L439.648 19.3024L439.568 19.3033L439.488 19.3043L439.408 19.3053L439.328 19.3063L439.248 19.3072L439.167 19.3082L439.087 19.3092L439.006 19.3102L438.925 19.3112L438.845 19.3122L438.764 19.3131L438.683 19.3141L438.601 19.3151L438.52 19.3161L438.439 19.3171L438.357 19.3181L438.275 19.3191L438.194 19.3201L438.112 19.3211L438.03 19.3221L437.948 19.3231L437.866 19.3241L437.783 19.3251L437.701 19.3261L437.618 19.3271L437.536 19.3281L437.453 19.3291L437.37 19.3301L437.287 19.3311L437.204 19.3321L437.121 19.3332L437.037 19.3342L436.954 19.3352L436.87 19.3362L436.787 19.3372L436.703 19.3382L436.619 19.3393L436.535 19.3403L436.451 19.3413L436.367 19.3424L436.282 19.3434L436.198 19.3444L436.113 19.3454L436.028 19.3465L435.943 19.3475L435.858 19.3485L435.773 19.3496L435.688 19.3506L435.603 19.3517L435.517 19.3527L435.432 19.3537L435.346 19.3548L435.261 19.3558L435.175 19.3569L435.089 19.3579L435.003 19.359L434.916 19.36L434.83 19.3611L434.743 19.3621L434.657 19.3632L434.57 19.3642L434.483 19.3653L434.396 19.3663L434.309 19.3674L434.222 19.3685L434.135 19.3695L434.047 19.3706L433.959 19.3717L433.872 19.3727L433.784 19.3738L433.696 19.3749L433.608 19.3759L433.52 19.377L433.431 19.3781L433.343 19.3792L433.255 19.3803L433.166 19.3813L433.077 19.3824L432.988 19.3835L432.899 19.3846L432.81 19.3857L432.721 19.3868L432.631 19.3878L432.542 19.3889L432.452 19.39L432.362 19.3911L432.272 19.3922L432.182 19.3933L432.092 19.3944L432.002 19.3955L431.912 19.3966L431.821 19.3977L431.73 19.3988L431.64 19.3999L431.549 19.401L431.458 19.4021L431.367 19.4033L431.275 19.4044L431.184 19.4055L431.092 19.4066L431.001 19.4077L430.909 19.4088L430.817 19.4099L430.725 19.4111L430.633 19.4122L430.541 19.4133L430.448 19.4144L430.356 19.4156L430.263 19.4167L430.17 19.4178L430.077 19.419L429.984 19.4201L429.891 19.4212L429.798 19.4224L429.704 19.4235L429.611 19.4246L429.517 19.4258L429.423 19.4269C428.738 19.4353 428.431 19.5744 428.275 19.6873C428.124 19.7973 427.907 20.0347 427.707 20.6598L427.707 20.662C425.338 28.0645 421.251 33.434 415.17 36.8726L415.167 36.8742C413.286 37.9337 411.249 38.7188 409.229 39.4928C408.328 39.8385 407.433 40.1871 406.542 40.5569C406.532 40.6606 406.522 40.8189 406.524 40.9724L406.67 52.837C406.831 66.6004 406.998 80.8209 407.247 94.8126C407.29 96.846 407.677 99.1586 408.445 101.693L408.446 101.697C410.525 108.611 414.582 114.881 421.791 122.09C432.029 132.333 444.88 141.323 462.31 150.374L462.312 150.375C462.825 150.643 463.206 150.748 463.517 150.775L463.71 150.772C464.063 150.768 464.458 150.663 464.966 150.34C467.13 148.96 469.316 147.607 471.493 146.259C471.866 146.028 472.24 145.797 472.613 145.566ZM472.613 145.566L473.479 146.942" stroke="#333336" stroke-width="3"/>
<path d="M462.492 17.6763L464.033 151.722" stroke="#333336" stroke-width="2" stroke-miterlimit="10"/>
<path d="M463.085 150.775L463.278 150.772C463.631 150.768 464.026 150.663 464.534 150.34C466.693 148.963 468.875 147.613 471.047 146.268L471.061 146.26L471.382 146.061C471.649 145.896 471.915 145.731 472.181 145.566L472.682 145.256C477.686 142.157 482.795 138.992 487.638 135.599C497.382 128.777 504.951 121.462 510.822 113.236C516.135 105.795 518.562 98.1334 518.313 89.7338C517.98 78.5425 517.878 67.1651 517.779 56.1448L517.779 56.1366L517.769 55.0253C517.728 50.2035 517.687 45.3858 517.628 40.5687L517.607 38.863L517.51 38.8302L517.482 38.8208L517.455 38.8105C517.231 38.7264 517.105 38.6909 517.013 38.6731L516.998 38.6702C511.857 37.6252 507.504 35.541 503.956 32.3375C500.414 29.1399 497.755 24.9011 495.883 19.6631C495.634 18.9704 495.34 18.8115 495.192 18.748L462.496 19.221L463.085 150.775Z" fill="#CCEDFE"/>
<path d="M472.181 145.566L472.682 145.256C477.686 142.157 482.795 138.992 487.638 135.599C497.382 128.777 504.951 121.462 510.822 113.236C516.135 105.795 518.562 98.1334 518.313 89.7338C517.98 78.5397 517.878 67.1595 517.779 56.1366L517.769 55.0253C517.728 50.2035 517.687 45.3858 517.628 40.5687L517.607 38.863L517.51 38.8302L517.482 38.8208L517.455 38.8105C517.231 38.7264 517.105 38.6909 517.013 38.6731L516.998 38.6702C511.857 37.6252 507.504 35.541 503.956 32.3375C500.414 29.1399 497.755 24.9011 495.883 19.6631C495.634 18.9704 495.34 18.8115 495.192 18.748L462.496 19.221L463.085 150.775L463.278 150.772C463.631 150.768 464.026 150.663 464.534 150.34C466.698 148.96 468.884 147.607 471.061 146.26C471.435 146.028 471.808 145.797 472.181 145.566ZM472.181 145.566L473.047 146.943" stroke="#333336" stroke-width="3"/>
<g clip-path="url(#clip0_3307_26512)">
<path d="M187.582 169.348H24.7734C12.2391 169.348 2.07812 179.565 2.07812 192.168C2.07812 204.772 12.2391 214.988 24.7734 214.988H187.582C200.115 214.988 210.277 204.771 210.277 192.168C210.277 179.565 200.115 169.348 187.582 169.348Z" fill="white" stroke="#333336" stroke-width="3" stroke-linecap="round" stroke-linejoin="round"/>
<path d="M46.5492 184.2L41.2078 191.267V191.38L49.6981 190.249V194.093L41.2078 193.076V193.189L46.6054 199.972L43.0633 202.008L39.6901 194.093H39.5776L35.9229 202.065L32.7185 200.029L38.0597 193.132V193.019L29.7383 194.093V190.249L38.0034 191.323V191.21L32.7185 184.313L36.1479 182.334L39.6338 190.192H39.7463L43.176 182.278L46.5492 184.2Z" fill="#333336"/>
<path d="M73.0531 184.2L67.7117 191.267V191.38L76.2022 190.249V194.093L67.7117 193.076V193.189L73.1093 199.972L69.5672 202.008L66.194 194.093H66.0815L62.4268 202.065L59.2224 200.029L64.5636 193.132V193.019L56.2422 194.093V190.249L64.5073 191.323V191.21L59.2224 184.313L62.6518 182.334L66.1377 190.192H66.2502L69.6799 182.278L73.0531 184.2Z" fill="#333336"/>
<path d="M99.5376 184.2L94.1963 191.267V191.38L102.687 190.249V194.093L94.1963 193.076V193.189L99.5939 199.972L96.0517 202.008L92.6785 194.093H92.566L88.9112 202.065L85.7069 200.029L91.0481 193.132V193.019L82.7266 194.093V190.249L90.9918 191.323V191.21L85.7069 184.313L89.1364 182.334L92.6223 190.192H92.7348L96.1642 182.278L99.5376 184.2Z" fill="#333336"/>
<path d="M121.641 187.559C121.641 188.431 121.393 189.188 120.897 189.828C120.402 190.469 119.641 191.083 118.614 191.671C119.835 192.222 120.765 192.916 121.402 193.753C122.057 194.589 122.384 195.551 122.384 196.636C122.384 197.633 122.119 198.541 121.588 199.359C121.074 200.16 120.322 200.792 119.331 201.255C118.357 201.718 117.207 201.949 115.879 201.949C114.534 201.949 113.375 201.718 112.401 201.255C111.445 200.792 110.719 200.169 110.224 199.386C109.728 198.585 109.48 197.695 109.48 196.716C109.48 194.616 110.666 193.032 113.038 191.964C112.047 191.448 111.33 190.87 110.888 190.229C110.445 189.57 110.224 188.734 110.224 187.719C110.224 186.669 110.489 185.779 111.02 185.05C111.569 184.302 112.277 183.742 113.145 183.368C114.03 182.994 114.959 182.807 115.932 182.807C116.977 182.807 117.924 182.994 118.773 183.368C119.641 183.724 120.331 184.258 120.844 184.97C121.375 185.682 121.641 186.545 121.641 187.559ZM113.091 187.746C113.091 188.333 113.224 188.814 113.49 189.188C113.755 189.561 114.127 189.873 114.605 190.122C115.083 190.354 115.747 190.62 116.596 190.923C117.375 190.443 117.933 189.962 118.269 189.481C118.605 189.001 118.773 188.414 118.773 187.719C118.773 186.883 118.525 186.224 118.03 185.744C117.534 185.246 116.835 184.996 115.932 184.996C115.03 184.996 114.33 185.237 113.835 185.717C113.339 186.198 113.091 186.874 113.091 187.746ZM119.331 196.663C119.331 195.951 119.163 195.373 118.826 194.928C118.49 194.465 118.03 194.091 117.446 193.806C116.879 193.522 116.047 193.183 114.95 192.792C113.339 193.628 112.534 194.901 112.534 196.61C112.534 197.571 112.817 198.327 113.383 198.879C113.968 199.413 114.808 199.68 115.906 199.68C117.003 199.68 117.844 199.404 118.428 198.852C119.03 198.283 119.331 197.553 119.331 196.663ZM140.216 187.559C140.216 188.431 139.968 189.188 139.473 189.828C138.977 190.469 138.216 191.083 137.189 191.671C138.411 192.222 139.34 192.916 139.977 193.753C140.632 194.589 140.96 195.551 140.96 196.636C140.96 197.633 140.694 198.541 140.163 199.359C139.65 200.16 138.898 200.792 137.906 201.255C136.933 201.718 135.782 201.949 134.455 201.949C133.109 201.949 131.95 201.718 130.976 201.255C130.021 200.792 129.295 200.169 128.799 199.386C128.304 198.585 128.056 197.695 128.056 196.716C128.056 194.616 129.242 193.032 131.614 191.964C130.622 191.448 129.906 190.87 129.463 190.229C129.021 189.57 128.799 188.734 128.799 187.719C128.799 186.669 129.065 185.779 129.596 185.05C130.144 184.302 130.853 183.742 131.72 183.368C132.605 182.994 133.534 182.807 134.508 182.807C135.552 182.807 136.499 182.994 137.349 183.368C138.216 183.724 138.906 184.258 139.42 184.97C139.951 185.682 140.216 186.545 140.216 187.559ZM131.667 187.746C131.667 188.333 131.8 188.814 132.065 189.188C132.33 189.561 132.702 189.873 133.18 190.122C133.658 190.354 134.322 190.62 135.171 190.923C135.95 190.443 136.508 189.962 136.844 189.481C137.181 189.001 137.349 188.414 137.349 187.719C137.349 186.883 137.101 186.224 136.605 185.744C136.11 185.246 135.41 184.996 134.508 184.996C133.605 184.996 132.906 185.237 132.41 185.717C131.915 186.198 131.667 186.874 131.667 187.746ZM137.906 196.663C137.906 195.951 137.738 195.373 137.402 194.928C137.066 194.465 136.605 194.091 136.021 193.806C135.455 193.522 134.623 193.183 133.525 192.792C131.915 193.628 131.109 194.901 131.109 196.61C131.109 197.571 131.392 198.327 131.959 198.879C132.543 199.413 133.384 199.68 134.481 199.68C135.579 199.68 136.419 199.404 137.004 198.852C137.605 198.283 137.906 197.553 137.906 196.663ZM152.287 182.807C153.473 182.807 154.508 183.021 155.393 183.448C156.278 183.857 156.96 184.418 157.438 185.13C157.915 185.842 158.154 186.625 158.154 187.479C158.154 188.583 157.809 189.517 157.119 190.282C156.446 191.048 155.579 191.555 154.517 191.804C155.756 191.929 156.765 192.374 157.544 193.139C158.34 193.904 158.739 194.972 158.739 196.343C158.739 197.393 158.464 198.345 157.915 199.199C157.367 200.053 156.588 200.73 155.579 201.228C154.57 201.709 153.411 201.949 152.101 201.949C150.915 201.949 149.8 201.735 148.755 201.308C147.711 200.863 146.844 200.223 146.153 199.386L147.985 197.784C148.481 198.389 149.074 198.843 149.764 199.146C150.455 199.448 151.18 199.6 151.941 199.6C153.092 199.6 153.995 199.297 154.65 198.692C155.322 198.087 155.659 197.268 155.659 196.236C155.659 194.082 154.473 193.005 152.101 193.005H150.534L150.879 190.816H151.994C152.915 190.816 153.676 190.567 154.278 190.069C154.897 189.57 155.207 188.85 155.207 187.906C155.207 187.034 154.915 186.358 154.331 185.877C153.747 185.379 152.986 185.13 152.048 185.13C151.304 185.13 150.632 185.263 150.03 185.53C149.428 185.797 148.835 186.216 148.251 186.785L146.684 185.076C148.242 183.564 150.109 182.807 152.287 182.807ZM172.747 189.481C173.721 189.481 174.597 189.704 175.375 190.149C176.154 190.594 176.774 191.261 177.235 192.151C177.694 193.041 177.925 194.118 177.925 195.382C177.925 196.681 177.659 197.829 177.128 198.825C176.615 199.822 175.898 200.596 174.977 201.148C174.075 201.682 173.039 201.949 171.87 201.949C169.676 201.949 168.066 201.157 167.038 199.573C166.012 197.971 165.498 195.791 165.498 193.032C165.498 190.985 165.782 189.197 166.348 187.666C166.933 186.118 167.773 184.925 168.871 184.089C169.967 183.234 171.26 182.807 172.747 182.807C174.145 182.807 175.402 183.181 176.518 183.928L175.375 185.851C174.561 185.334 173.686 185.076 172.747 185.076C171.509 185.076 170.517 185.664 169.773 186.838C169.03 187.995 168.622 189.597 168.552 191.644C169.631 190.202 171.03 189.481 172.747 189.481ZM171.897 199.68C172.889 199.68 173.641 199.306 174.154 198.558C174.667 197.811 174.924 196.796 174.924 195.515C174.924 192.97 173.995 191.697 172.137 191.697C171.429 191.697 170.764 191.893 170.144 192.285C169.543 192.658 169.021 193.183 168.579 193.86C168.614 195.871 168.888 197.348 169.402 198.291C169.915 199.217 170.747 199.68 171.897 199.68Z" fill="#333336"/>
<path d="M218.241 138.869C217.956 138.373 217.43 138.067 216.861 138.067C216.291 138.067 215.765 138.373 215.479 138.869L188.666 185.567C188.382 186.063 188.382 186.674 188.666 187.169C188.951 187.665 189.477 187.971 190.046 187.971H243.675C244.244 187.971 244.77 187.665 245.055 187.169C245.339 186.674 245.339 186.063 245.055 185.567L218.241 138.869Z" fill="#FFEA80" stroke="#333336" stroke-width="3" stroke-linejoin="round"/>
<path d="M218.787 154.569L218.398 171.66H215.275L214.848 154.569H218.787ZM216.855 175.49C217.61 175.49 218.242 175.745 218.75 176.256C219.258 176.766 219.512 177.382 219.512 178.105C219.512 178.839 219.258 179.468 218.75 179.991C218.242 180.514 217.61 180.776 216.855 180.776C216.125 180.776 215.505 180.514 214.998 179.991C214.503 179.468 214.254 178.839 214.254 178.105C214.254 177.382 214.503 176.766 214.998 176.256C215.505 175.745 216.125 175.49 216.855 175.49Z" fill="#333336"/>
</g>
<defs>
<clipPath id="clip0_3307_26512">
<rect width="248.628" height="80.1264" fill="white" transform="translate(0 136.465)"/>
</clipPath>
</defs>
</svg>
