<svg xmlns="http://www.w3.org/2000/svg" width="55" height="64" fill="none" viewBox="0 0 55 64">
  <defs>
    <linearGradient id="a" x1="5.28544" x2="32.6824" y1="8.94694" y2="35.9294" gradientUnits="userSpaceOnUse">
      <stop stop-color="#387EB8"/>
      <stop offset="1" stop-color="#366994"/>
    </linearGradient>
    <linearGradient id="b" x1="22.0154" x2="51.4296" y1="26.3652" y2="54.0265" gradientUnits="userSpaceOnUse">
      <stop stop-color="#FFE052"/>
      <stop offset="1" stop-color="#FFC331"/>
    </linearGradient>
  </defs>
  <circle cx="20.5" cy="10.5" r="3.5" fill="#fff"/>
  <circle cx="35.5" cy="52.5" r="3.5" fill="#fff"/>
  <path fill="url(#a)" d="M27.3015 4C13.3393 4 14.211 10.0866 14.211 10.0866l.0155 6.3059h13.324v1.8932H8.93446S0 17.2672 0 31.4289C0 45.591 7.79825 45.0888 7.79825 45.0888h4.65385V38.517s-.2509-7.8392 7.6738-7.8392H33.341s7.4251.1207 7.4251-7.2132v-12.126S41.8931 4 27.3015 4Zm-7.3467 4.24061c.3148-.00028.6266.06185.9175.18284.291.12099.5554.29846.778.52226.2227.2238.3992.48954.5196.78201.1203.29248.1821.60588.1818.92238.0003.3166-.0615.63-.1818.9224-.1204.2925-.2969.5583-.5196.7821-.2226.2238-.487.4013-.778.5223-.2909.121-.6027.1831-.9175.1827-.3149.0004-.6268-.0617-.9177-.1827-.291-.121-.5553-.2985-.7779-.5223-.2227-.2238-.3992-.4896-.5196-.7821-.1203-.2924-.1821-.6058-.1819-.9224-.0002-.3165.0616-.6299.1819-.92238.1204-.29247.2969-.55821.5196-.78201.2226-.2238.4869-.40127.7779-.52226.2909-.12099.6028-.18312.9177-.18284Z"/>
  <path fill="url(#b)" d="M27.6982 59c13.9628 0 13.091-6.0867 13.091-6.0867l-.016-6.3057H27.4491v-1.8932h18.6156s8.9355 1.0187 8.9355-13.1435c0-14.1619-7.7983-13.6596-7.7983-13.6596h-4.6542v6.5716s.2506 7.8391-7.674 7.8391h-13.215s-7.4246-.1207-7.4246 7.2134v12.1262S13.1066 59 27.6981 59h.0001Zm7.3469-4.2402c-.3149.0002-.6266-.0619-.9176-.1829-.2909-.121-.5553-.2984-.778-.5222-.2226-.2238-.3992-.4895-.5195-.782-.1204-.2925-.1822-.606-.1819-.9225-.0003-.3165.0615-.6299.1819-.9225.1202-.2925.2969-.5582.5194-.7821.2226-.2238.487-.4012.778-.5222.2909-.121.6028-.1832.9177-.1829.3148-.0003.6266.0619.9176.1829.2909.121.5553.2984.778.5222.2226.2239.3991.4895.5195.782.1204.2925.1821.6059.1819.9224.0002.3165-.0615.63-.1819.9225-.1204.2925-.2969.5581-.5195.7819-.2227.2239-.4871.4013-.778.5223-.291.121-.6028.1831-.9176.1829v.0002Z"/>
</svg>
