<svg xmlns="http://www.w3.org/2000/svg" width="52" height="64" fill="none" viewBox="0 0 52 64">
  <path fill="#3178C6" d="M49.5625 6H2.4375C1.09131 6 0 7.09131 0 8.4375v47.125C0 56.9087 1.09131 58 2.4375 58h47.125C50.9087 58 52 56.9087 52 55.5625V8.4375C52 7.09131 50.9087 6 49.5625 6Z"/>
  <path fill="#fff" d="M30.169 46.4089v5.698c.9232.4745 2.0149.8308 3.2754 1.0681 1.2605.2376 2.589.3562 3.9855.3562 1.3611 0 2.6541-.1304 3.8788-.3916 1.2253-.2612 2.299-.6914 3.2224-1.291.923-.5997 1.6538-1.3829 2.1925-2.3506.5383-.9673.8076-2.1633.8076-3.5877 0-1.0327-.1539-1.9379-.4615-2.7154-.3079-.7776-.7515-1.469-1.3316-2.0744-.5798-.6054-1.2753-1.1485-2.0857-1.6292-.8109-.4808-1.725-.9349-2.743-1.3622-.7456-.3086-1.4143-.6084-2.006-.8992-.5918-.2908-1.0948-.5876-1.509-.8903-.4142-.3027-.7338-.6232-.9586-.9616-.2249-.3382-.3374-.7211-.3374-1.1484 0-.3918.1006-.7449.3018-1.0595.2013-.3145.4853-.5846.8522-.8102.3669-.2255.8166-.4006 1.3492-.5252.5326-.1247 1.1243-.187 1.7753-.187.4736 0 .9733.0356 1.5002.1068.5265.0713 1.0562.1811 1.5888.3295.5326.1483 1.0502.3353 1.5535.5608.5029.2256.9673.4867 1.3934.7835v-5.324c-.864-.3323-1.8078-.5787-2.8315-.7389-1.0238-.1603-2.1982-.2404-3.524-.2404-1.3492 0-2.6274.1454-3.8346.4362-1.2072.2909-2.2694.7449-3.1866 1.3622-.9172.6173-1.6422 1.4037-2.1747 2.3593-.5326.9556-.7989 2.0981-.7989 3.4276 0 1.6976.4882 3.1458 1.4646 4.3447.9764 1.1989 2.4588 2.2139 4.4471 3.0448.7811.3205 1.509.6351 2.1836.9437.6746.3087 1.2575.6292 1.7486.9616.4912.3323.8787.6944 1.1626 1.0861.2844.3918.4262.8369.4262 1.3355 0 .3681-.0886.7094-.2661 1.0238s-.4469.5874-.8078.819c-.361.2316-.8107.4128-1.3493.5432-.5385.1304-1.1687.1958-1.8906.1958-1.2309 0-2.4499-.2166-3.6571-.65-1.2072-.4331-2.3256-1.0831-3.3553-1.9496Zm-9.5711-14.1837h7.4333v-4.694H7.3125v4.694h7.397V53.125h5.8884V32.2252Z"/>
</svg>
